<svg width="20" height="20" viewBox="0 0 25 22" fill="none" xmlns="http://www.w3.org/2000/svg">
<path id="Vector" d="M12.5 17.6199C14.0098 17.6199 15.2897 17.1035 16.3398 16.0707C17.3899 15.0379 17.9149 13.779 17.9149 12.2941C17.9149 10.8092 17.3899 9.55035 16.3398 8.51755C15.2897 7.48476 14.0098 6.96836 12.5 6.96836C10.9902 6.96836 9.71028 7.48476 8.66019 8.51755C7.6101 9.55035 7.08505 10.8092 7.08505 12.2941C7.08505 13.779 7.6101 15.0379 8.66019 16.0707C9.71028 17.1035 10.9902 17.6199 12.5 17.6199ZM12.5 15.6788C11.5283 15.6788 10.7119 15.3536 10.0506 14.7032C9.38931 14.0528 9.05867 13.2498 9.05867 12.2941C9.05867 11.3385 9.38931 10.5354 10.0506 9.88505C10.7119 9.23467 11.5283 8.90948 12.5 8.90948C13.4717 8.90948 14.2881 9.23467 14.9494 9.88505C15.6107 10.5354 15.9413 11.3385 15.9413 12.2941C15.9413 13.2498 15.6107 14.0528 14.9494 14.7032C14.2881 15.3536 13.4717 15.6788 12.5 15.6788ZM2.37856 22C1.71391 22 1.15132 21.7735 0.690791 21.3206C0.230264 20.8676 0 20.3143 0 19.6606V4.92763C0 4.27392 0.230264 3.7206 0.690791 3.26766C1.15132 2.81471 1.71391 2.58824 2.37856 2.58824H6.39676L8.83098 0H16.169L18.6032 2.58824H22.6214C23.2861 2.58824 23.8487 2.81471 24.3092 3.26766C24.7697 3.7206 25 4.27392 25 4.92763V19.6606C25 20.3143 24.7697 20.8676 24.3092 21.3206C23.8487 21.7735 23.2861 22 22.6214 22H2.37856ZM2.37856 20.0588H22.6214C22.7395 20.0588 22.8365 20.0215 22.9125 19.9468C22.9884 19.8722 23.0263 19.7768 23.0263 19.6606V4.92763C23.0263 4.81148 22.9884 4.71607 22.9125 4.6414C22.8365 4.56673 22.7395 4.52939 22.6214 4.52939H17.7227L15.3087 1.94115H9.69127L7.27732 4.52939H2.37856C2.26047 4.52939 2.16346 4.56673 2.08754 4.6414C2.01162 4.71607 1.97366 4.81148 1.97366 4.92763V19.6606C1.97366 19.7768 2.01162 19.8722 2.08754 19.9468C2.16346 20.0215 2.26047 20.0588 2.37856 20.0588Z" fill="black"/>
</svg>
