<svg xmlns="http://www.w3.org/2000/svg" shape-rendering="geometricPrecision" text-rendering="geometricPrecision" image-rendering="optimizeQuality" fill-rule="evenodd" clip-rule="evenodd" viewBox="0 0 348 510.27"><path d="M55.24 0h183.62c15.23 0 29.13 6.2 39.04 16.2 10.05 10.06 16.18 23.89 16.18 39.05v70.25h-19.11V54.72H19.03v379.83h255.94V290.84h19.11v165.2c0 15.24-6.21 29.15-16.18 39.04-10.07 10.07-23.89 16.19-39.04 16.19H55.24c-15.25 0-29.15-6.2-39.05-16.19C6.13 485.04 0 471.21 0 456.04V55.17c0-15.24 6.2-29.15 16.19-39.06C26.24 6.07 39.99 0 55.24 0zM44.89 75.96h26.68c2.66 0 4.84 2.18 4.84 4.84v5.15l15.41-9.26v29.22L76.41 97.6v6.7c0 2.66-2.18 4.83-4.84 4.83H44.89c-2.67 0-4.84-2.17-4.84-4.83V80.8a4.85 4.85 0 0 1 4.84-4.84zM348 163.56v77.18c0 5.25-4.28 9.54-9.54 9.54h-53.55l-22.4 19.93c-2.25 2.52-6.5.96-6.5-2.48l-1.12-17.45h-16.41c-5.24 0-9.54-4.3-9.54-9.54v-77.18c0-5.22 4.32-9.53 9.54-9.53h99.98c5.22 0 9.54 4.3 9.54 9.53zM166.22 277.75c-12.37 7.42-29.29 4.77-41.54-3.16l-.07.78 19.69 36.87 21.97-33.71c-.03-.25-.04-.52-.05-.78zm-105.91-1.98c9.32-.73 15.68-4.42 19.99-10.33 4.36-5.98 6.67-14.26 7.84-24.06.61-5.18.98-10.59 1.34-16.09 1.82-27.08 3.78-56.3 35.8-68.74 4.74-1.84 9.7-3.01 14.71-3.52 11.36-1.16 23 1.1 32.97 6.7 9.98 5.6 18.31 14.56 23.06 26.78 1.93 4.98 3.27 10.51 3.89 16.56v.11c-.09 16.14 2.56 36.99 9.75 52.25 5.32 11.28 13.12 19.48 24.11 20.34.44.03.77.4.74.83l-.07.27c-3.06 8.01-21.86 14.33-38.88 15.02l.21.04.46.11.88.18c1.32 6.32 1.67 12.95 1.5 18.99-.05 1.86-.11 2.4-.14 3.03a17.022 17.022 0 0 0-13.33 16.62c0 4.71 1.91 8.97 4.99 12.05 6.01 6.01 14.77 7.39 22.49 1.35 3.99-3.11 6.55-7.97 6.55-13.42 0-7.81-4.82-13.56-12.05-16.48-1.07-.43-.74-1.08-.69-2.96.16-5.7-.04-11.6-.82-17.33 16.09 3.78 27.14 8.27 34.54 16.42 8.8 9.69 12.08 27.9 12.08 51.87 0 1.58-1.28 2.87-2.86 2.87H44.71c-1.58 0-2.86-1.29-2.86-2.87 0-23.34 3.11-41.56 11.4-51.32 8.16-9.62 20.99-14.32 40.51-18.2-2.51-.19-5.03-.52-7.5-.99-12.65-2.4-24.17-8.34-26.65-15.05-.14-.41.08-.85.5-.99l.2-.04zm46.38 16.45c-1.04.2-2.11.36-3.2.48-1.35.15-2.74.24-4.15.28-.46 2.44-.75 4.8-.9 6.99-2 1.46-6.97 3.18-8.55 5.08a71.639 71.639 0 0 0-7.37 10.57c-.34.59-.53 1.27-.53 1.95 0 .54.56 1.08.32 1.56l-.36.7c-4.96 9.66-8.2 20.29-6.66 24.87.72 2.18 2.44 3.61 5 4.4 1.97.51 3.99.77 6.02.77.61 0 1.21-.02 1.81-.07.28.26.61.51.99.75.4.25.83.45 1.27.61.56.21 1.15.33 1.75.33a4.8 4.8 0 0 0 4.79-4.8c0-.68-.16-1.36-.43-1.99-.79-1.82-2.56-3.13-4.55-3.07-1.76.06-4.28.86-4.28 2.63v.04l-.06.11c-.41.03-.82.04-1.23.04-1.5 0-3.01-.15-4.46-.53-.85-.22-1.34-.57-1.46-.92-1.11-3.21 1.92-12.11 6.29-20.7.18-.36.36-.71.54-1.05.84-.32 1.56-.91 2-1.69 1.88-3.31 4.07-6.48 6.51-9.4 1-1.2 4.91-3.29 6.47-3.29h.39c1.2.86 2.32 1.85 3.3 2.96 2.61 2.95 4.92 6.2 6.88 9.6.44.78 1.5.94 1.97 1.7 5.05 8.19 7.9 17.57 7.22 21.14-.14.84-.84 1.34-1.92 1.69-1.64.43-3.32.67-5.01.7-.07-.12-.13-.24-.2-.36v-.04c.04-1.77-2.52-2.57-4.28-2.63-1.99-.07-3.76 1.25-4.55 3.07-.27.63-.43 1.31-.43 1.99 0 2.65 2.14 4.8 4.8 4.8.59 0 1.18-.12 1.74-.33.44-.16.87-.36 1.27-.61.25-.16.48-.32.69-.48.22.01.45.01.68.01 2.37 0 4.75-.28 7.01-.99 2.9-.91 4.95-2.74 5.53-5.83.85-4.65-2.54-14.95-7.53-24.27.2-.49.32-1.01.32-1.55a4 4 0 0 0-.55-1.99c-2.25-3.87-4.88-7.55-7.84-10.89-1.58-1.79-5.07-2.3-5.44-4.67-.37-2.39-.2-4.99.38-7.67zm63.11-29.25c2.84-3.02 5.46-6.13 7.78-9.41 2.3-3.27 4.33-6.72 6.04-10.44a74.83 74.83 0 0 0 1.73-15.83c.01-5.31-.53-10.78-1.68-16.4-5.52-2.55-10.1-6.53-13.76-11.91-3.17-4.64-5.66-10.33-7.5-17.03-5.13 20.68-26.87 25.52-41.83 28.85-4.92 1.09-9.1 2.02-11.57 3.27-.01 2.46-.08 4.97-.15 7.38-.29 10.15-.52 18.49 4.61 28.69l.04.11c.68 1.35 1.39 2.67 2.11 3.93.74 1.29 1.5 2.53 2.29 3.73.7 1.08 1.4 2.14 2.09 3.09.71.97 1.44 1.89 2.24 2.72l.57.57c6.43 6.31 14.97 9.08 23.42 8.8 8.47-.28 16.87-3.63 22.99-9.54l.58-.58zm87.13-68.23a4.89 4.89 0 0 1-4.89-4.89c0-2.7 2.19-4.9 4.89-4.9h63.08c2.7 0 4.89 2.2 4.89 4.9s-2.19 4.89-4.89 4.89h-63.08zm0 26.1a4.89 4.89 0 0 1-4.89-4.89c0-2.71 2.19-4.9 4.89-4.9h51.44a4.895 4.895 0 1 1 0 9.79h-51.44zM146.97 451.83c12.5 0 22.71 10.06 22.71 22.7 0 12.51-10.06 22.72-22.71 22.72-12.5 0-22.72-10.05-22.72-22.72 0-12.48 10.06-22.7 22.72-22.7z"/></svg>