<svg xmlns="http://www.w3.org/2000/svg" width="30" height="30" viewBox="0 0 35 29" fill="none">
    <g clip-path="url(#clip0_166_282)">
        <path d="M24.0248 29H5.19541C2.33119 29 0 26.6864 0 23.8437V10.577C0 7.7344 2.33119 5.42078 5.19541 5.42078H6.90367V7.65155H5.19541C3.57064 7.65155 2.24771 8.96451 2.24771 10.577V23.8437C2.24771 25.4563 3.57064 26.7692 5.19541 26.7692H24.0216C25.6463 26.7692 26.9693 25.4563 26.9693 23.8437V22.467H29.217V23.8437C29.217 26.6864 26.8858 29 24.0216 29H24.0248Z" fill="#A4CF5F"/>
        <path d="M29.8045 23.5824H10.9784C8.11415 23.5824 5.78296 21.2688 5.78296 18.4262V5.15626C5.77975 2.31363 8.11094 0 10.9752 0H29.8013C32.6655 0 34.9967 2.31363 34.9967 5.15626V18.423C34.9967 21.2656 32.6655 23.5792 29.8013 23.5792L29.8045 23.5824ZM10.9752 2.23077C9.35039 2.23077 8.02746 3.54374 8.02746 5.15626V18.423C8.02746 20.0355 9.35039 21.3485 10.9752 21.3485H29.8013C31.4261 21.3485 32.749 20.0355 32.749 18.423V5.15626C32.749 3.54374 31.4261 2.23077 29.8013 2.23077H10.9752Z" fill="#A4CF5F"/>
        <path d="M28.8991 6.05493H11.2385V8.2857H28.8991V6.05493Z" fill="#A4CF5F"/>
        <path d="M28.8991 10.8352H11.2385V13.066H28.8991V10.8352Z" fill="#A4CF5F"/>
        <path d="M28.8991 15.6154H11.2385V17.8461H28.8991V15.6154Z" fill="#A4CF5F"/>
    </g>
    <defs>
        <clipPath id="clip0_166_282">
            <rect width="35" height="29" fill="white"/>
        </clipPath>
    </defs>
</svg>