<svg version="1.0" xmlns="http://www.w3.org/2000/svg"
     width="24" height="24" viewBox="0 0 512.000000 512.000000"
     preserveAspectRatio="xMidYMid meet">

    <g transform="translate(0.000000,512.000000) scale(0.100000,-0.100000)"
       fill="#000000" stroke="none">
        <path d="M2430 5104 c-221 -47 -408 -236 -455 -459 -19 -89 -19 -155 0 -279
26 -175 25 -178 -93 -258 -42 -28 -117 -92 -167 -143 -140 -140 -236 -294
-294 -473 -59 -181 -56 -94 -56 -1792 l0 -1565 24 -38 c13 -21 42 -50 64 -65
l41 -27 1066 0 1066 0 41 27 c22 15 51 44 64 65 l24 38 0 1565 c0 1698 3 1611
-56 1792 -58 179 -154 333 -294 473 -50 51 -125 115 -167 143 -118 80 -119 83
-93 258 19 124 19 190 0 279 -57 272 -312 477 -590 474 -33 0 -89 -7 -125 -15z
m236 -416 c48 -32 83 -86 90 -139 4 -27 -1 -88 -11 -150 -45 -267 18 -445 205
-576 158 -111 230 -185 300 -304 42 -71 83 -182 98 -266 l9 -53 -797 0 -797 0
9 53 c25 139 94 283 185 388 54 62 105 105 213 182 87 61 157 148 190 234 31
79 37 219 16 338 -19 105 -20 137 -6 187 13 44 81 114 124 128 49 15 133 4
172 -22z m694 -1988 l0 -100 -800 0 -800 0 0 100 0 100 800 0 800 0 0 -100z
m0 -1400 l0 -900 -800 0 -800 0 0 900 0 900 800 0 800 0 0 -900z"/>
    </g>
</svg>