<svg width="20" height="20" viewBox="0 0 21 21" fill="none" xmlns="http://www.w3.org/2000/svg">
<path id="Vector" d="M2.23305 21C1.60906 21 1.08089 20.7838 0.648531 20.3515C0.216177 19.9191 0 19.3909 0 18.767V2.23305C0 1.60906 0.216177 1.08089 0.648531 0.648531C1.08089 0.216177 1.60906 0 2.23305 0H18.7669C19.3909 0 19.9191 0.216177 20.3515 0.648531C20.7838 1.08089 21 1.60906 21 2.23305V18.767C21 19.3909 20.7838 19.9191 20.3515 20.3515C19.9191 20.7838 19.3909 21 18.7669 21H2.23305ZM2.23305 19.1471H18.7669C18.862 19.1471 18.9491 19.1075 19.0283 19.0283C19.1075 18.9491 19.1471 18.862 19.1471 18.767V2.23305C19.1471 2.13801 19.1075 2.05089 19.0283 1.97169C18.9491 1.89251 18.862 1.85292 18.7669 1.85292H2.23305C2.13801 1.85292 2.05089 1.89251 1.97169 1.97169C1.89251 2.05089 1.85292 2.13801 1.85292 2.23305V18.767C1.85292 18.862 1.89251 18.9491 1.97169 19.0283C2.05089 19.1075 2.13801 19.1471 2.23305 19.1471ZM4.01475 16.3676H17.0803L13.0181 10.9514L9.54978 15.4649L7.07918 12.3055L4.01475 16.3676Z" fill="black"/>
</svg>
