<svg xmlns="http://www.w3.org/2000/svg" width="30" height="30" viewBox="0 0 26 32" fill="none">
    <g clip-path="url(#clip0_166_293)">
        <path d="M13 19.9604C7.46944 19.9604 2.97144 16.1236 2.97144 11.406C2.97144 8.56082 4.62429 5.90893 7.39144 4.3121L8.84744 6.14973C6.79715 7.33151 5.57144 9.29587 5.57144 11.406C5.57144 14.9006 8.90315 17.7426 13 17.7426C17.0969 17.7426 20.4286 14.9006 20.4286 11.406C20.4286 9.20715 19.1249 7.19844 16.9372 6.0325L18.3189 4.15369C21.268 5.73151 23.0286 8.44359 23.0286 11.4091C23.0286 16.1268 18.5306 19.9636 13 19.9636V19.9604Z" fill="#000000"/>
        <path d="M13 10.1386C9.72399 10.1386 7.05713 7.86376 7.05713 5.06931C7.05713 2.27485 9.72399 0 13 0C16.276 0 18.9428 2.27485 18.9428 5.06931C18.9428 7.86376 16.276 10.1386 13 10.1386ZM13 2.21782C11.1577 2.21782 9.65713 3.49782 9.65713 5.06931C9.65713 6.64079 11.1577 7.92079 13 7.92079C14.8423 7.92079 16.3428 6.64079 16.3428 5.06931C16.3428 3.49782 14.8423 2.21782 13 2.21782Z" fill="#000000"/>
        <path d="M21.7286 32H4.27143C1.91657 32 0 30.3651 0 28.3564V23.6039C0 20.3723 3.08286 17.7426 6.87143 17.7426H19.1286C22.9171 17.7426 26 20.3723 26 23.6039V28.3564C26 30.3651 24.0834 32 21.7286 32ZM6.87143 19.9604C4.51657 19.9604 2.6 21.5952 2.6 23.6039V28.3564C2.6 29.1422 3.35029 29.7822 4.27143 29.7822H21.7286C22.6497 29.7822 23.4 29.1422 23.4 28.3564V23.6039C23.4 21.5952 21.4834 19.9604 19.1286 19.9604H6.87143Z" fill="#000000"/>
    </g>
    <defs>
        <clipPath id="clip0_166_293">
            <rect width="26" height="32" fill="white"/>
        </clipPath>
    </defs>
</svg>